<svg width="200" height="200" viewBox="0 0 200 200" fill="none" xmlns="http://www.w3.org/2000/svg">
<path d="M100 200C44.7715 200 0 155.228 0 100C0 44.7715 44.7715 0 100 0C155.228 0 200 44.7715 200 100C200 118.214 195.13 135.291 186.622 150L170.5 139.26C176.872 127.778 180.5 114.563 180.5 100.5C180.5 56.3172 144.683 20.5 100.5 20.5C56.3172 20.5 20.5 56.3172 20.5 100.5C20.5 144.683 56.3172 180.5 100.5 180.5C111.878 180.5 122.701 178.125 132.5 173.843L141.5 191.009C128.859 196.783 114.805 200 100 200Z" fill="#F87070"/>
<path d="M93.5 44.5H107.5V94.6005L132.605 119.705L122.705 129.605L93.5 100.4V44.5Z" fill="#F87070"/>
</svg>
