<svg width="154" height="25" viewBox="0 0 154 25" fill="none" xmlns="http://www.w3.org/2000/svg"><path d="M0.265625 24V0.5625H8.28125C10.25 0.5625 11.9479 0.885417 13.375 1.53125C14.8125 2.16667 15.9167 3.07812 16.6875 4.26562C17.4583 5.44271 17.8438 6.84896 17.8438 8.48438C17.8438 10.1198 17.4583 11.5365 16.6875 12.7344C15.9167 13.9219 14.8177 14.8385 13.3906 15.4844C11.974 16.1302 10.2865 16.4531 8.32812 16.4531H5.07812V24H0.265625ZM5.07812 12.2344H7.82812C9.46354 12.2344 10.7188 11.9115 11.5938 11.2656C12.4792 10.6094 12.9219 9.68229 12.9219 8.48438C12.9219 7.30729 12.4792 6.39583 11.5938 5.75C10.7188 5.09375 9.46354 4.76562 7.82812 4.76562H5.07812V12.2344ZM27.25 24.3125C25.6458 24.3125 24.2083 23.9635 22.9375 23.2656C21.6667 22.5573 20.6667 21.5938 19.9375 20.375C19.2188 19.1458 18.8594 17.75 18.8594 16.1875C18.8594 14.6354 19.2188 13.25 19.9375 12.0312C20.6667 10.8021 21.6667 9.83333 22.9375 9.125C24.2083 8.41667 25.6458 8.0625 27.25 8.0625C28.8542 8.0625 30.2812 8.41667 31.5312 9.125C32.7917 9.83333 33.7812 10.8021 34.5 12.0312C35.2292 13.25 35.5938 14.6354 35.5938 16.1875C35.5938 17.75 35.2292 19.1458 34.5 20.375C33.7812 21.5938 32.7917 22.5573 31.5312 23.2656C30.2812 23.9635 28.8542 24.3125 27.25 24.3125ZM27.2344 20.2969C27.9531 20.2969 28.5938 20.1198 29.1562 19.7656C29.7292 19.401 30.1771 18.9115 30.5 18.2969C30.8333 17.6719 31 16.9583 31 16.1562C31 15.3854 30.8333 14.6927 30.5 14.0781C30.1771 13.4635 29.7292 12.9792 29.1562 12.625C28.5938 12.2604 27.9531 12.0781 27.2344 12.0781C26.5052 12.0781 25.8542 12.2604 25.2812 12.625C24.7188 12.9792 24.2708 13.4635 23.9375 14.0781C23.6146 14.6927 23.4531 15.3854 23.4531 16.1562C23.4531 16.9583 23.6146 17.6719 23.9375 18.2969C24.2708 18.9115 24.7188 19.401 25.2812 19.7656C25.8542 20.1198 26.5052 20.2969 27.2344 20.2969ZM63.875 24H59.3906V16.1562C59.3906 14.8542 59.1354 13.849 58.625 13.1406C58.1146 12.4323 57.3906 12.0781 56.4531 12.0781C55.4948 12.0781 54.7448 12.4375 54.2031 13.1562C53.6719 13.875 53.4062 14.875 53.4062 16.1562V24H48.9219V16.1562C48.9219 14.8542 48.6667 13.849 48.1562 13.1406C47.6458 12.4323 46.9167 12.0781 45.9688 12.0781C45.0208 12.0781 44.276 12.4375 43.7344 13.1562C43.2031 13.875 42.9375 14.875 42.9375 16.1562V24H38.4531V8.375H42.0312L42.1875 10.9531C42.7083 10.0052 43.4062 9.28646 44.2812 8.79688C45.1667 8.30729 46.1927 8.0625 47.3594 8.0625C48.5781 8.0625 49.6302 8.31771 50.5156 8.82812C51.401 9.33854 52.0833 10.0729 52.5625 11.0312C53.0938 10.0625 53.7969 9.32812 54.6719 8.82812C55.5573 8.31771 56.6042 8.0625 57.8125 8.0625C59.7188 8.0625 61.2031 8.67188 62.2656 9.89062C63.3385 11.099 63.875 12.7917 63.875 14.9688V24ZM74.8125 24.3125C73.2083 24.3125 71.7708 23.9635 70.5 23.2656C69.2292 22.5573 68.2292 21.5938 67.5 20.375C66.7812 19.1458 66.4219 17.75 66.4219 16.1875C66.4219 14.6354 66.7812 13.25 67.5 12.0312C68.2292 10.8021 69.2292 9.83333 70.5 9.125C71.7708 8.41667 73.2083 8.0625 74.8125 8.0625C76.4167 8.0625 77.8438 8.41667 79.0938 9.125C80.3542 9.83333 81.3438 10.8021 82.0625 12.0312C82.7917 13.25 83.1562 14.6354 83.1562 16.1875C83.1562 17.75 82.7917 19.1458 82.0625 20.375C81.3438 21.5938 80.3542 22.5573 79.0938 23.2656C77.8438 23.9635 76.4167 24.3125 74.8125 24.3125ZM74.7969 20.2969C75.5156 20.2969 76.1562 20.1198 76.7188 19.7656C77.2917 19.401 77.7396 18.9115 78.0625 18.2969C78.3958 17.6719 78.5625 16.9583 78.5625 16.1562C78.5625 15.3854 78.3958 14.6927 78.0625 14.0781C77.7396 13.4635 77.2917 12.9792 76.7188 12.625C76.1562 12.2604 75.5156 12.0781 74.7969 12.0781C74.0677 12.0781 73.4167 12.2604 72.8438 12.625C72.2812 12.9792 71.8333 13.4635 71.5 14.0781C71.1771 14.6927 71.0156 15.3854 71.0156 16.1562C71.0156 16.9583 71.1771 17.6719 71.5 18.2969C71.8333 18.9115 72.2812 19.401 72.8438 19.7656C73.4167 20.1198 74.0677 20.2969 74.7969 20.2969ZM102.109 24H98.1719L97.9375 21.875C97.2708 22.625 96.4688 23.2188 95.5312 23.6562C94.6042 24.0938 93.5885 24.3125 92.4844 24.3125C91.0573 24.3125 89.7812 23.9635 88.6562 23.2656C87.5417 22.5573 86.6615 21.5885 86.0156 20.3594C85.3698 19.1302 85.0469 17.7396 85.0469 16.1875C85.0469 14.625 85.3698 13.2344 86.0156 12.0156C86.6615 10.7865 87.5417 9.82292 88.6562 9.125C89.7812 8.41667 91.0573 8.0625 92.4844 8.0625C93.5052 8.0625 94.4531 8.25 95.3281 8.625C96.2135 8.98958 96.9792 9.5 97.625 10.1562V0.5625H102.109V24ZM93.6406 20.2969C94.3802 20.2969 95.0469 20.1302 95.6406 19.7969C96.2448 19.4635 96.724 19.0104 97.0781 18.4375C97.4427 17.8542 97.625 17.1927 97.625 16.4531V15.8906C97.625 15.151 97.4427 14.4948 97.0781 13.9219C96.724 13.349 96.2448 12.901 95.6406 12.5781C95.0469 12.2448 94.3802 12.0781 93.6406 12.0781C92.8802 12.0781 92.1979 12.2552 91.5938 12.6094C90.9896 12.9635 90.5104 13.4531 90.1562 14.0781C89.8125 14.6927 89.6406 15.3958 89.6406 16.1875C89.6406 16.9688 89.8125 17.6719 90.1562 18.2969C90.5104 18.9115 90.9896 19.401 91.5938 19.7656C92.1979 20.1198 92.8802 20.2969 93.6406 20.2969ZM113.344 24.3125C111.74 24.3125 110.302 23.9635 109.031 23.2656C107.76 22.5573 106.76 21.5938 106.031 20.375C105.312 19.1458 104.953 17.75 104.953 16.1875C104.953 14.6354 105.312 13.25 106.031 12.0312C106.76 10.8021 107.76 9.83333 109.031 9.125C110.302 8.41667 111.74 8.0625 113.344 8.0625C114.948 8.0625 116.375 8.41667 117.625 9.125C118.885 9.83333 119.875 10.8021 120.594 12.0312C121.323 13.25 121.688 14.6354 121.688 16.1875C121.688 17.75 121.323 19.1458 120.594 20.375C119.875 21.5938 118.885 22.5573 117.625 23.2656C116.375 23.9635 114.948 24.3125 113.344 24.3125ZM113.328 20.2969C114.047 20.2969 114.688 20.1198 115.25 19.7656C115.823 19.401 116.271 18.9115 116.594 18.2969C116.927 17.6719 117.094 16.9583 117.094 16.1562C117.094 15.3854 116.927 14.6927 116.594 14.0781C116.271 13.4635 115.823 12.9792 115.25 12.625C114.688 12.2604 114.047 12.0781 113.328 12.0781C112.599 12.0781 111.948 12.2604 111.375 12.625C110.812 12.9792 110.365 13.4635 110.031 14.0781C109.708 14.6927 109.547 15.3854 109.547 16.1562C109.547 16.9583 109.708 17.6719 110.031 18.2969C110.365 18.9115 110.812 19.401 111.375 19.7656C111.948 20.1198 112.599 20.2969 113.328 20.2969ZM129.031 24H124.547V8.375H128.453L128.609 11.0781C129.13 10.1302 129.839 9.39062 130.734 8.85938C131.63 8.32812 132.656 8.0625 133.812 8.0625C134.146 8.0625 134.479 8.08854 134.812 8.14062C135.156 8.18229 135.505 8.25 135.859 8.34375L135.297 12.375C134.609 12.1771 133.958 12.0781 133.344 12.0781C132.479 12.0781 131.719 12.276 131.062 12.6719C130.417 13.0573 129.917 13.599 129.562 14.2969C129.208 14.9844 129.031 15.7917 129.031 16.7188V24ZM145.344 24.3125C143.74 24.3125 142.302 23.9635 141.031 23.2656C139.76 22.5573 138.76 21.5938 138.031 20.375C137.312 19.1458 136.953 17.75 136.953 16.1875C136.953 14.6354 137.312 13.25 138.031 12.0312C138.76 10.8021 139.76 9.83333 141.031 9.125C142.302 8.41667 143.74 8.0625 145.344 8.0625C146.948 8.0625 148.375 8.41667 149.625 9.125C150.885 9.83333 151.875 10.8021 152.594 12.0312C153.323 13.25 153.688 14.6354 153.688 16.1875C153.688 17.75 153.323 19.1458 152.594 20.375C151.875 21.5938 150.885 22.5573 149.625 23.2656C148.375 23.9635 146.948 24.3125 145.344 24.3125ZM145.328 20.2969C146.047 20.2969 146.688 20.1198 147.25 19.7656C147.823 19.401 148.271 18.9115 148.594 18.2969C148.927 17.6719 149.094 16.9583 149.094 16.1562C149.094 15.3854 148.927 14.6927 148.594 14.0781C148.271 13.4635 147.823 12.9792 147.25 12.625C146.688 12.2604 146.047 12.0781 145.328 12.0781C144.599 12.0781 143.948 12.2604 143.375 12.625C142.812 12.9792 142.365 13.4635 142.031 14.0781C141.708 14.6927 141.547 15.3854 141.547 16.1562C141.547 16.9583 141.708 17.6719 142.031 18.2969C142.365 18.9115 142.812 19.401 143.375 19.7656C143.948 20.1198 144.599 20.2969 145.328 20.2969Z" fill="#D7E0FF"/></svg>
